<?xml version="1.0" encoding="UTF-8"?>
<svg version="1.1" xmlns="http://www.w3.org/2000/svg" width="128" height="128">
<path d="M0 0 C0.20380313 4.54100249 0.32781306 9.08082666 0.4375 13.625 C0.49615234 14.91019531 0.55480469 16.19539063 0.61523438 17.51953125 C0.78536067 26.90078145 0.78536067 26.90078145 -1.47290039 30.06152344 C-3.24615489 31.52474546 -5.07671022 32.74566893 -7 34 C-8.94240319 36.47178265 -8.94240319 36.47178265 -10.3125 39 C-10.78300781 39.804375 -11.25351562 40.60875 -11.73828125 41.4375 C-16.04108342 50.17631803 -16.45169339 59.46392036 -13.5 68.75 C-9.27158189 78.87168377 -1.88136577 84.70058569 8 89 C18.99754508 93.39477187 31.37056017 91.43927318 42 87 C51.57303586 82.14889637 56.98329538 74.97315482 60.3046875 64.85546875 C62.66106028 55.17845471 60.67876687 46.52089111 55.83203125 37.9296875 C53.73072357 34.7879265 52.22568448 33.12940366 48.859375 31.19921875 C46.4091351 29.19687216 46.02515053 28.15693123 45.51513672 24.97460938 C45.40869387 21.19614543 45.47820946 17.46453359 45.625 13.6875 C45.66560547 11.71813477 45.66560547 11.71813477 45.70703125 9.70898438 C45.7776784 6.47099021 45.87629434 3.23633042 46 0 C61.44841849 4.96898407 73.98122585 16.5387173 81.46875 30.796875 C88.3684185 45.31827033 89.45596891 61.46552168 84.30859375 76.80078125 C78.26311578 91.58062143 67.38705427 103.82560459 53 111 C34.92543453 118.45965364 14.9556376 120.1743458 -3.40625 112.59375 C-19.43389521 105.20709612 -30.80782274 93.95304188 -37.9921875 77.80078125 C-43.45790111 62.6111818 -42.83042578 45.61433738 -36 31 C-30.31396077 19.87325826 -14.31749965 0 0 0 Z " fill="#58863C" transform="translate(41,8)"/>
<path d="M0 0 C1.07507812 -0.00128906 2.15015625 -0.00257812 3.2578125 -0.00390625 C4.38960937 -0.00003906 5.52140625 0.00382813 6.6875 0.0078125 C7.81929687 0.00394531 8.95109375 0.00007812 10.1171875 -0.00390625 C11.19226563 -0.00261719 12.26734375 -0.00132813 13.375 0 C14.86580078 0.00169189 14.86580078 0.00169189 16.38671875 0.00341797 C18.6875 0.1328125 18.6875 0.1328125 19.6875 1.1328125 C19.7817174 3.24962567 19.80492761 5.36962008 19.80102539 7.48852539 C19.80117142 8.15191422 19.80131744 8.81530304 19.8014679 9.49879456 C19.80076881 11.70105206 19.79297665 13.90322595 19.78515625 16.10546875 C19.78329206 17.62861586 19.78186816 19.15176357 19.78086853 20.6749115 C19.77704346 24.69118901 19.76721328 28.70743058 19.75616455 32.72369385 C19.74595019 36.81904616 19.74137086 40.91440426 19.73632812 45.00976562 C19.72559099 53.05079962 19.70799429 61.09179745 19.6875 69.1328125 C11.1075 69.1328125 2.5275 69.1328125 -6.3125 69.1328125 C-6.33505318 60.28398526 -6.35341634 51.43517698 -6.36431217 42.58632755 C-6.36954046 38.47786965 -6.37663713 34.36943236 -6.38793945 30.26098633 C-6.39877025 26.29934422 -6.40477724 22.33772198 -6.40737724 18.37606621 C-6.40923114 16.86132939 -6.4128511 15.34659371 -6.41823006 13.83186531 C-6.42544307 11.71739437 -6.42649083 9.60300656 -6.42602539 7.48852539 C-6.428246 6.28273331 -6.43046661 5.07694122 -6.43275452 3.83460999 C-6.22284002 -0.88160764 -4.21112532 0.00477916 0 0 Z " fill="#58863C" transform="translate(57.3125,1.8671875)"/>
</svg>
